<svg width="21" height="21" viewBox="0 0 21 21" fill="none" xmlns="http://www.w3.org/2000/svg">
<path d="M11.9138 10.5L16.2068 6.20703C16.5974 5.81641 16.5974 5.18359 16.2068 4.79297C15.8162 4.40234 15.1833 4.40234 14.7927 4.79297L10.4998 9.08594L6.20679 4.79297C5.81616 4.40234 5.18335 4.40234 4.79272 4.79297C4.4021 5.18359 4.4021 5.81641 4.79272 6.20703L9.08569 10.5L4.79272 14.793C4.4021 15.1836 4.4021 15.8164 4.79272 16.207C4.98804 16.4023 5.2439 16.5 5.49976 16.5C5.75562 16.5 6.01147 16.4023 6.20679 16.207L10.4998 11.9141L14.7927 16.207C14.988 16.4023 15.2439 16.5 15.4998 16.5C15.7556 16.5 16.0115 16.4023 16.2068 16.207C16.5974 15.8164 16.5974 15.1836 16.2068 14.793L11.9138 10.5Z" fill="black"/>
</svg>
