<svg width="20" height="20" viewBox="0 0 20 20" fill="none" xmlns="http://www.w3.org/2000/svg">
<path fill-rule="evenodd" clip-rule="evenodd" d="M4.22864 7.2487C4.37515 7.10237 4.57375 7.02018 4.78082 7.02018C4.98788 7.02018 5.18648 7.10237 5.33299 7.2487L9.99003 11.9057L14.6471 7.2487C14.7186 7.17193 14.8049 7.11035 14.9007 7.06764C14.9966 7.02494 15.1 7.00197 15.205 7.00012C15.3099 6.99827 15.4141 7.01757 15.5114 7.05687C15.6087 7.09617 15.6971 7.15466 15.7713 7.22886C15.8455 7.30306 15.904 7.39144 15.9433 7.48874C15.9826 7.58604 16.0019 7.69025 16 7.79517C15.9981 7.90008 15.9752 8.00355 15.9325 8.0994C15.8898 8.19525 15.8282 8.28152 15.7514 8.35305L10.5422 13.5623C10.3957 13.7086 10.1971 13.7908 9.99003 13.7908C9.78297 13.7908 9.58437 13.7086 9.43786 13.5623L4.22864 8.35305C4.08231 8.20654 4.00012 8.00794 4.00012 7.80087C4.00012 7.59381 4.08231 7.39521 4.22864 7.2487Z" fill="#5E5E5E"/>
</svg>
