<svg width="284" height="253" viewBox="0 0 284 253" fill="none" xmlns="http://www.w3.org/2000/svg">
<path fill-rule="evenodd" clip-rule="evenodd" d="M175.628 215.849L148.105 243.372V252.139C214.565 248.547 267.349 193.519 267.349 126.163C267.349 125.489 267.343 124.815 267.333 124.144L231.128 160.349L231.008 160.249C221.324 185.756 201.086 206.066 175.628 215.849ZM135.081 252.18V243.372L108.049 216.34C81.6606 206.64 60.7087 185.688 51.009 159.3L15.054 123.345C15.0335 124.282 15.0232 125.221 15.0232 126.163C15.0232 193.794 68.2387 248.996 135.081 252.18ZM141.186 30.1163C122.444 30.1163 104.955 35.4846 90.1745 44.7674H44.7882C67.9309 17.387 102.528 0 141.186 0C179.844 0 214.441 17.387 237.584 44.7674H192.197C177.417 35.4846 159.928 30.1163 141.186 30.1163Z" fill="#B8CCFF"/>
<path d="M148.512 226.279V57.791H177V157.093L191.651 142.442V57.791H220.14V113.14H220.953L241.302 92.791L234.791 86.2794V57.791H247L282 92.791L148.512 226.279Z" fill="#255CEA" stroke="#CAD9FF" stroke-width="2"/>
<path d="M135.081 57.791V94.8259H106.593V86.2794H48.8023L42.2907 92.791L56.9419 107.442H135.081V226.279L57.7558 148.954H98.4535L106.593 157.093V135.931H45.1395L2 92.791L37 57.791H135.081Z" fill="#255CEA" stroke="#CAD9FF" stroke-width="2"/>
</svg>
