<svg width="192" height="171" viewBox="0 0 192 171" fill="none" xmlns="http://www.w3.org/2000/svg">
<path fill-rule="evenodd" clip-rule="evenodd" d="M118.71 145.768L100.123 164.355V170.276C145.005 167.85 180.651 130.688 180.651 85.2008C180.651 84.7455 180.648 84.291 180.64 83.8374L156.19 108.288L156.11 108.22C149.569 125.445 135.902 139.162 118.71 145.768ZM91.3277 170.304V164.355L73.0718 146.099C55.2513 139.549 41.1021 125.4 34.5516 107.579L10.2703 83.2979C10.2564 83.9305 10.2494 84.5649 10.2494 85.2008C10.2494 130.874 46.1872 168.153 91.3277 170.304ZM95.4503 20.3383C82.7931 20.3383 70.9827 23.9637 61.0008 30.2327H30.3504C45.9792 11.7419 69.3435 0 95.4503 0C121.557 0 144.921 11.7419 160.55 30.2327H129.9C119.918 23.9637 108.107 20.3383 95.4503 20.3383Z" fill="#3D70F7"/>
<path d="M100.397 152.812V39.0273H119.636V106.089L129.531 96.1944V39.0273H148.77V76.4058H149.319L163.061 62.6637L158.664 58.2662V39.0273H166.909L190.545 62.6637L100.397 152.812Z" fill="white" stroke="#3F70F0"/>
<path d="M91.3277 39.0273V64.0379H72.0888V58.2662H33.0613L28.6638 62.6637L38.5581 72.558H91.3277V152.812L39.1078 100.592H66.592L72.0888 106.089V91.7969H30.5877L1.45454 62.6637L25.0909 39.0273H91.3277Z" fill="white" stroke="#3F70F0"/>
</svg>
