<svg width="280" height="313" viewBox="0 0 280 313" fill="none" xmlns="http://www.w3.org/2000/svg">
<g opacity="0.2">
<path d="M17.9494 300.2C14.8585 300.2 12.0585 299.818 9.54943 299.054C7.04034 298.254 4.85852 297.127 3.00397 295.673L4.91307 291.2C6.14943 292.145 7.42216 292.927 8.73125 293.545C10.0767 294.164 11.4949 294.636 12.9858 294.964C14.5131 295.254 16.1676 295.4 17.9494 295.4C21.004 295.4 23.2403 294.854 24.6585 293.764C26.1131 292.673 26.8403 291.236 26.8403 289.454C26.8403 287.927 26.3312 286.745 25.3131 285.909C24.3312 285.073 22.5858 284.4 20.0767 283.891L14.1312 282.691C10.604 281.964 7.96761 280.782 6.22216 279.145C4.51307 277.473 3.65852 275.2 3.65852 272.327C3.65852 270 4.2767 267.964 5.51307 266.218C6.74943 264.473 8.45852 263.127 10.6403 262.182C12.8585 261.236 15.4403 260.764 18.3858 260.764C21.1131 260.764 23.6222 261.164 25.9131 261.964C28.204 262.727 30.1312 263.873 31.6949 265.4L29.8403 269.709C28.204 268.291 26.4585 267.254 24.604 266.6C22.7494 265.909 20.6403 265.564 18.2767 265.564C15.4767 265.564 13.2767 266.145 11.6767 267.309C10.1131 268.473 9.33125 270.054 9.33125 272.054C9.33125 273.654 9.82216 274.909 10.804 275.818C11.8222 276.727 13.4949 277.418 15.8222 277.891L21.7676 279.036C25.4403 279.8 28.1494 280.982 29.8949 282.582C31.6403 284.145 32.5131 286.309 32.5131 289.073C32.5131 291.291 31.9131 293.236 30.7131 294.909C29.5494 296.582 27.8767 297.891 25.6949 298.836C23.5131 299.745 20.9312 300.2 17.9494 300.2ZM49.5249 300.2C46.543 300.2 44.2885 299.4 42.7612 297.8C41.2339 296.164 40.4703 293.727 40.4703 290.491V276.473H35.1249V272.218H40.4703V264.964L45.9794 263.491V272.218H53.6158V276.473H45.9794V290C45.9794 292.036 46.343 293.491 47.0703 294.364C47.7976 295.236 48.8521 295.673 50.2339 295.673C50.9249 295.673 51.5249 295.618 52.0339 295.509C52.5794 295.364 53.0703 295.2 53.5067 295.018V299.491C52.9612 299.709 52.3249 299.873 51.5976 299.982C50.8703 300.127 50.1794 300.2 49.5249 300.2ZM70.1648 300.2C67.4375 300.2 65.0739 299.636 63.0739 298.509C61.0739 297.345 59.5284 295.709 58.4375 293.6C57.3466 291.454 56.8011 288.909 56.8011 285.964C56.8011 283.018 57.3466 280.491 58.4375 278.382C59.5284 276.236 61.0739 274.6 63.0739 273.473C65.0739 272.309 67.4375 271.727 70.1648 271.727C72.892 271.727 75.2557 272.309 77.2557 273.473C79.292 274.6 80.8557 276.236 81.9466 278.382C83.0739 280.491 83.6375 283.018 83.6375 285.964C83.6375 288.909 83.0739 291.454 81.9466 293.6C80.8557 295.709 79.292 297.345 77.2557 298.509C75.2557 299.636 72.892 300.2 70.1648 300.2ZM70.1648 295.891C72.5648 295.891 74.4739 295.054 75.892 293.382C77.3102 291.709 78.0193 289.236 78.0193 285.964C78.0193 282.691 77.3102 280.236 75.892 278.6C74.4739 276.927 72.5648 276.091 70.1648 276.091C67.8011 276.091 65.9102 276.927 64.492 278.6C63.0739 280.236 62.3648 282.691 62.3648 285.964C62.3648 289.236 63.0557 291.709 64.4375 293.382C65.8557 295.054 67.7648 295.891 70.1648 295.891ZM90.0768 299.709V278.818C90.0768 277.764 90.0223 276.691 89.9132 275.6C89.8405 274.473 89.7496 273.345 89.6405 272.218H94.9859L95.4768 278H94.8223C95.6587 275.964 96.9496 274.418 98.695 273.364C100.44 272.273 102.459 271.727 104.75 271.727C107.986 271.727 110.422 272.618 112.059 274.4C113.731 276.182 114.568 278.945 114.568 282.691V299.709H109.059V283.018C109.059 280.582 108.568 278.836 107.586 277.782C106.64 276.691 105.186 276.145 103.222 276.145C100.895 276.145 99.0405 276.873 97.6587 278.327C96.2768 279.745 95.5859 281.673 95.5859 284.109V299.709H90.0768ZM135.119 300.2C130.683 300.2 127.192 298.945 124.646 296.436C122.101 293.927 120.828 290.454 120.828 286.018C120.828 283.145 121.374 280.636 122.464 278.491C123.592 276.345 125.137 274.691 127.101 273.527C129.101 272.327 131.41 271.727 134.028 271.727C136.61 271.727 138.774 272.273 140.519 273.364C142.264 274.454 143.592 276 144.501 278C145.41 279.964 145.864 282.291 145.864 284.982V286.727H125.137V283.564H142.101L141.174 284.273C141.174 281.545 140.555 279.436 139.319 277.945C138.119 276.418 136.374 275.654 134.083 275.654C131.537 275.654 129.574 276.545 128.192 278.327C126.81 280.073 126.119 282.491 126.119 285.582V286.127C126.119 289.364 126.901 291.8 128.464 293.436C130.064 295.073 132.319 295.891 135.228 295.891C136.828 295.891 138.319 295.673 139.701 295.236C141.119 294.764 142.464 294 143.737 292.945L145.537 296.709C144.264 297.836 142.719 298.709 140.901 299.327C139.083 299.909 137.155 300.2 135.119 300.2ZM163.259 299.709L149.786 261.254H155.677L166.859 294.473H164.841L176.677 261.254H180.986L192.113 294.473H190.259L201.823 261.254H207.386L193.804 299.709H188.95L178.15 268.073H179.295L168.059 299.709H163.259ZM213.07 299.709V272.218H218.58V299.709H213.07ZM212.634 266.491V260.764H219.016V266.491H212.634ZM236.09 300.2C233.799 300.2 231.69 299.909 229.763 299.327C227.835 298.745 226.235 297.927 224.963 296.873L226.654 293.109C227.999 294.127 229.49 294.891 231.126 295.4C232.763 295.909 234.435 296.164 236.144 296.164C238.144 296.164 239.654 295.818 240.672 295.127C241.69 294.4 242.199 293.418 242.199 292.182C242.199 291.236 241.872 290.473 241.217 289.891C240.599 289.309 239.563 288.873 238.108 288.582L232.872 287.545C230.544 287.036 228.781 286.164 227.581 284.927C226.381 283.691 225.781 282.109 225.781 280.182C225.781 278.545 226.217 277.091 227.09 275.818C227.999 274.545 229.272 273.545 230.908 272.818C232.581 272.091 234.526 271.727 236.744 271.727C238.781 271.727 240.672 272.018 242.417 272.6C244.163 273.182 245.617 274.018 246.781 275.109L245.035 278.764C243.908 277.818 242.635 277.091 241.217 276.582C239.799 276.036 238.363 275.764 236.908 275.764C234.872 275.764 233.363 276.145 232.381 276.909C231.399 277.673 230.908 278.673 230.908 279.909C230.908 280.854 231.199 281.636 231.781 282.254C232.399 282.836 233.363 283.291 234.672 283.618L239.908 284.654C242.381 285.164 244.235 286 245.472 287.164C246.708 288.327 247.326 289.891 247.326 291.854C247.326 293.564 246.854 295.054 245.908 296.327C244.963 297.6 243.654 298.564 241.981 299.218C240.308 299.873 238.344 300.2 236.09 300.2ZM266.529 300.2C262.092 300.2 258.602 298.945 256.056 296.436C253.511 293.927 252.238 290.454 252.238 286.018C252.238 283.145 252.783 280.636 253.874 278.491C255.002 276.345 256.547 274.691 258.511 273.527C260.511 272.327 262.82 271.727 265.438 271.727C268.02 271.727 270.183 272.273 271.929 273.364C273.674 274.454 275.002 276 275.911 278C276.82 279.964 277.274 282.291 277.274 284.982V286.727H256.547V283.564H273.511L272.583 284.273C272.583 281.545 271.965 279.436 270.729 277.945C269.529 276.418 267.783 275.654 265.492 275.654C262.947 275.654 260.983 276.545 259.602 278.327C258.22 280.073 257.529 282.491 257.529 285.582V286.127C257.529 289.364 258.311 291.8 259.874 293.436C261.474 295.073 263.729 295.891 266.638 295.891C268.238 295.891 269.729 295.673 271.111 295.236C272.529 294.764 273.874 294 275.147 292.945L276.947 296.709C275.674 297.836 274.129 298.709 272.311 299.327C270.492 299.909 268.565 300.2 266.529 300.2Z" fill="#255CEA"/>
<path fill-rule="evenodd" clip-rule="evenodd" d="M170.571 196.227L145.55 221.248V229.217C205.968 225.952 253.953 175.927 253.953 114.693C253.953 114.081 253.949 113.469 253.939 112.858L221.025 145.772L220.917 145.681C212.112 168.869 193.715 187.333 170.571 196.227ZM133.71 229.255V221.248L109.135 196.672C85.146 187.854 66.0989 168.807 57.2809 144.818L24.5946 112.132C24.5759 112.983 24.5665 113.837 24.5665 114.693C24.5665 176.176 72.9443 226.36 133.71 229.255ZM139.26 27.3784C122.221 27.3784 106.323 32.2588 92.8857 40.6978H51.6255C72.6643 15.8064 104.116 0 139.26 0C174.404 0 205.856 15.8064 226.894 40.6978H185.634C172.197 32.2588 156.298 27.3784 139.26 27.3784Z" fill="#B8CCFF"/>
<path d="M145.92 205.708V52.5371H171.818V142.812L185.137 129.493V52.5371H211.036V102.854H211.776L230.275 84.3553L224.355 78.4356V52.5371H235.455L267.273 84.3553L145.92 205.708Z" fill="#255CEA" stroke="#CAD9FF" stroke-width="1.81818"/>
<path d="M133.71 52.5371V86.2052H107.812V78.4356H55.2749L49.3552 84.3553L62.6744 97.6745H133.71V205.708L63.4144 135.412H100.412L107.812 142.812V123.573H51.9451L12.7273 84.3553L44.5455 52.5371H133.71Z" fill="#255CEA" stroke="#CAD9FF" stroke-width="1.81818"/>
</g>
</svg>
