<svg width="20" height="20" viewBox="0 0 20 20" fill="none" xmlns="http://www.w3.org/2000/svg">
<path fill-rule="evenodd" clip-rule="evenodd" d="M4.22864 13.7513C4.37515 13.8976 4.57375 13.9798 4.78082 13.9798C4.98788 13.9798 5.18648 13.8976 5.33299 13.7513L9.99003 9.09426L14.6471 13.7513C14.7186 13.8281 14.8049 13.8896 14.9007 13.9324C14.9966 13.9751 15.1 13.998 15.205 13.9999C15.3099 14.0017 15.4141 13.9824 15.5114 13.9431C15.6087 13.9038 15.6971 13.8453 15.7713 13.7711C15.8455 13.6969 15.904 13.6086 15.9433 13.5113C15.9826 13.414 16.0019 13.3097 16 13.2048C15.9981 13.0999 15.9752 12.9964 15.9325 12.9006C15.8898 12.8047 15.8282 12.7185 15.7514 12.6469L10.5422 7.43773C10.3957 7.29141 10.1971 7.20922 9.99003 7.20922C9.78297 7.20922 9.58437 7.29141 9.43786 7.43773L4.22864 12.6469C4.08231 12.7935 4.00012 12.9921 4.00012 13.1991C4.00012 13.4062 4.08231 13.6048 4.22864 13.7513Z" fill="#5E5E5E"/>
</svg>
